<?xml version="1.0" encoding="UTF-8"?>
<svg width="12px" height="12px" viewBox="0 0 12 12" version="1.1" xmlns="http://www.w3.org/2000/svg" xmlns:xlink="http://www.w3.org/1999/xlink">
    <!-- Generator: Sketch 54.1 (76490) - https://sketchapp.com -->
    <title>plus</title>
    <desc>Created with Sketch.</desc>
    <g id="Page-1" stroke="none" stroke-width="1" fill="none" fill-rule="evenodd">
        <g id="Desktop-HD" transform="translate(-1267.000000, -719.000000)" fill="#1B1B1C">
            <g id="quantity" transform="translate(1151.000000, 696.000000)">
                <path d="M128,28.3458647 L128,29.6541353 C128,30.0964607 127.641298,30.4557125 127.198423,30.4557125 L124.261691,30.4557125 C123.816615,30.4557125 123.455712,30.8160646 123.455712,31.2611407 L123.455712,34.1984229 C123.455712,34.6412984 123.097011,35 122.654135,35 L121.345865,35 C120.903539,35 120.544288,34.6412984 120.544288,34.1984229 L120.544288,31.2611407 C120.544288,30.8160646 120.183385,30.4557125 119.738859,30.4557125 L116.801577,30.4557125 C116.358702,30.4557125 116,30.0964607 116,29.6541353 L116,28.3458647 C116,27.9029892 116.358702,27.5442875 116.801577,27.5442875 L119.738859,27.5442875 C120.183385,27.5442875 120.544288,27.1833853 120.544288,26.7383092 L120.544288,23.8015771 C120.544288,23.3587016 120.903539,23 121.345865,23 L122.654135,23 C123.097011,23 123.455712,23.3587016 123.455712,23.8015771 L123.455712,26.7383092 C123.455712,27.1833853 123.816615,27.5442875 124.261691,27.5442875 L127.198423,27.5442875 C127.641298,27.5442875 128,27.9029892 128,28.3458647" id="plus"></path>
            </g>
        </g>
    </g>
</svg>